<svg xmlns="http://www.w3.org/2000/svg" viewBox="0 0 300 180"><rect width="300" height="180" fill="#F3D9A4"/><circle cx="230" cy="52" r="26" fill="#F29B38"/>
<rect y="118" width="300" height="62" fill="#2E5E8A"/><path d="M0 124 q25 -10 50 0 t50 0 t50 0 t50 0 t50 0 t50 0 v8 H0z" fill="#3E78A8"/>
<path d="M98 116 h96 l-14 18 h-68 z" fill="#6B3E26"/><rect x="144" y="44" width="4" height="72" fill="#4A2A18"/>
<path d="M148 48 q34 26 0 58 z" fill="#FFF7E8" stroke="#C9A36B"/><path d="M144 52 q-26 24 0 50 z" fill="#FFF7E8" stroke="#C9A36B"/>
<g fill="#6B3E26"><rect x="112" y="118" width="3" height="10"/><rect x="128" y="118" width="3" height="10"/><rect x="160" y="118" width="3" height="10"/><rect x="176" y="118" width="3" height="10"/></g></svg>