<svg xmlns="http://www.w3.org/2000/svg" viewBox="0 0 400 320" role="img" aria-label="A station ticket gate">
<rect width="400" height="320" fill="#E6EAEE"/>
<rect x="0.0" y="0.0" width="400.0" height="26.0" rx="0" fill="#2F3E4E"  />
<g class="spot" data-id="board">
<rect x="14.0" y="34.0" width="190.0" height="62.0" rx="3" fill="#1E2A22" stroke="#3B3246" stroke-width="1.3" stroke-linejoin="round" stroke-linecap="round" />
<text x="24" y="52" font-size="9" text-anchor="start" fill="#FFFFFF" font-family="sans-serif" font-weight="700">普通</text>
<text x="90" y="52" font-size="9" text-anchor="start" fill="#FFFFFF" font-family="sans-serif" font-weight="700">名古屋</text>
<text x="194" y="52" font-size="9" text-anchor="end" fill="#6CF08A" font-family="sans-serif" font-weight="700">10:24</text>
<text x="24" y="69" font-size="9" text-anchor="start" fill="#F4A340" font-family="sans-serif" font-weight="700">快速</text>
<text x="90" y="69" font-size="9" text-anchor="start" fill="#FFFFFF" font-family="sans-serif" font-weight="700">豊橋</text>
<text x="194" y="69" font-size="9" text-anchor="end" fill="#6CF08A" font-family="sans-serif" font-weight="700">10:31</text>
<text x="24" y="86" font-size="9" text-anchor="start" fill="#E05A4F" font-family="sans-serif" font-weight="700">特急</text>
<text x="90" y="86" font-size="9" text-anchor="start" fill="#FFFFFF" font-family="sans-serif" font-weight="700">東京</text>
<text x="194" y="86" font-size="9" text-anchor="end" fill="#6CF08A" font-family="sans-serif" font-weight="700">10:40</text>
</g>
<g class="spot" data-id="faremap">
<rect x="222.0" y="34.0" width="166.0" height="62.0" rx="3" fill="#FFFFFF" stroke="#3B3246" stroke-width="1.3" stroke-linejoin="round" stroke-linecap="round" />
<line x1="236" y1="66" x2="376" y2="66" stroke="#4C8FD6" stroke-width="3" stroke-linecap="round"/>
<line x1="300" y1="44" x2="300" y2="90" stroke="#62B77A" stroke-width="3" stroke-linecap="round"/>
<circle cx="240.0" cy="66.0" r="4.0" fill="#FFFFFF" stroke="#3B3246" stroke-width="1.1" stroke-linejoin="round" stroke-linecap="round" />
<text x="240" y="80" font-size="6" text-anchor="middle" fill="#555" font-family="sans-serif" font-weight="700">150</text>
<circle cx="264.0" cy="66.0" r="4.0" fill="#FFFFFF" stroke="#3B3246" stroke-width="1.1" stroke-linejoin="round" stroke-linecap="round" />
<text x="264" y="80" font-size="6" text-anchor="middle" fill="#555" font-family="sans-serif" font-weight="700">190</text>
<circle cx="288.0" cy="66.0" r="4.0" fill="#FFFFFF" stroke="#3B3246" stroke-width="1.1" stroke-linejoin="round" stroke-linecap="round" />
<text x="288" y="80" font-size="6" text-anchor="middle" fill="#555" font-family="sans-serif" font-weight="700">230</text>
<circle cx="312.0" cy="66.0" r="4.0" fill="#FFFFFF" stroke="#3B3246" stroke-width="1.1" stroke-linejoin="round" stroke-linecap="round" />
<text x="312" y="80" font-size="6" text-anchor="middle" fill="#555" font-family="sans-serif" font-weight="700">270</text>
<circle cx="336.0" cy="66.0" r="4.0" fill="#FFFFFF" stroke="#3B3246" stroke-width="1.1" stroke-linejoin="round" stroke-linecap="round" />
<text x="336" y="80" font-size="6" text-anchor="middle" fill="#555" font-family="sans-serif" font-weight="700">310</text>
<circle cx="360.0" cy="66.0" r="4.0" fill="#FFFFFF" stroke="#3B3246" stroke-width="1.1" stroke-linejoin="round" stroke-linecap="round" />
<text x="360" y="80" font-size="6" text-anchor="middle" fill="#555" font-family="sans-serif" font-weight="700">350</text>
<text x="305" y="44" font-size="7" text-anchor="middle" fill="#3B3246" font-family="sans-serif" font-weight="700">運賃表</text>
</g>
<g class="spot" data-id="ticketmachine">
<rect x="226.0" y="104.0" width="76.0" height="110.0" rx="4" fill="#DDE3EA" stroke="#3B3246" stroke-width="1.3" stroke-linejoin="round" stroke-linecap="round" />
<rect x="234.0" y="112.0" width="60.0" height="40.0" rx="2" fill="#9FD4F2" stroke="#3B3246" stroke-width="1" stroke-linejoin="round" stroke-linecap="round" />
<path d="M236 114 l14 0 l-8.4 30 l-5.6000000000000005 0 z" fill="#FFFFFF" opacity=".45"/>
<rect x="236.0" y="160.0" width="24.0" height="6.0" rx="1" fill="#2B2B33" stroke="#3B3246" stroke-width="0.6" stroke-linejoin="round" stroke-linecap="round" />
<rect x="268.0" y="158.0" width="22.0" height="10.0" rx="1" fill="#2B2B33" stroke="#3B3246" stroke-width="0.6" stroke-linejoin="round" stroke-linecap="round" />
<rect x="240.0" y="184.0" width="48.0" height="14.0" rx="2" fill="#46424E" stroke="#3B3246" stroke-width="0.8" stroke-linejoin="round" stroke-linecap="round" />
<rect x="310.0" y="104.0" width="76.0" height="110.0" rx="4" fill="#DDE3EA" stroke="#3B3246" stroke-width="1.3" stroke-linejoin="round" stroke-linecap="round" />
<rect x="318.0" y="112.0" width="60.0" height="40.0" rx="2" fill="#9FD4F2" stroke="#3B3246" stroke-width="1" stroke-linejoin="round" stroke-linecap="round" />
<path d="M320 114 l14 0 l-8.4 30 l-5.6000000000000005 0 z" fill="#FFFFFF" opacity=".45"/>
<rect x="320.0" y="160.0" width="24.0" height="6.0" rx="1" fill="#2B2B33" stroke="#3B3246" stroke-width="0.6" stroke-linejoin="round" stroke-linecap="round" />
<rect x="352.0" y="158.0" width="22.0" height="10.0" rx="1" fill="#2B2B33" stroke="#3B3246" stroke-width="0.6" stroke-linejoin="round" stroke-linecap="round" />
<rect x="324.0" y="184.0" width="48.0" height="14.0" rx="2" fill="#46424E" stroke="#3B3246" stroke-width="0.8" stroke-linejoin="round" stroke-linecap="round" />
</g>
<g class="spot" data-id="ticket">
<rect x="250.0" y="188.0" width="26.0" height="12.0" rx="1" fill="#F2E6C8" stroke="#3B3246" stroke-width="1" stroke-linejoin="round" stroke-linecap="round" />
<line x1="254" y1="194" x2="272" y2="194" stroke="#8A6A45" stroke-width="1" stroke-linecap="round"/>
</g>
<g class="spot" data-id="window">
<rect x="14.0" y="104.0" width="110.0" height="110.0" rx="3" fill="#C9D3D8" stroke="#3B3246" stroke-width="1.3" stroke-linejoin="round" stroke-linecap="round" />
<rect x="22.0" y="112.0" width="94.0" height="56.0" rx="2" fill="#E4F4FB" stroke="#3B3246" stroke-width="1" stroke-linejoin="round" stroke-linecap="round" />
<ellipse cx="69.0" cy="140.0" rx="12.0" ry="13.0" fill="#FBE3D1" stroke="#3B3246" stroke-width="1" stroke-linejoin="round" stroke-linecap="round" />
<rect x="56.0" y="127.0" width="26.0" height="7.0" rx="2" fill="#2F3E6B" stroke="#3B3246" stroke-width="1" stroke-linejoin="round" stroke-linecap="round" />
<path d="M52 168 q17 -18 34 0 z" fill="#2F3E6B" stroke="#3B3246" stroke-width="1" stroke-linejoin="round" stroke-linecap="round" />
<text x="69" y="196" font-size="8" text-anchor="middle" fill="#3DAA6D" font-family="sans-serif" font-weight="700">みどりの窓口</text>
</g>
<rect x="0.0" y="214.0" width="400.0" height="106.0" rx="0" fill="#CFC8BE"  />
<line x1="0" y1="214" x2="400" y2="214" stroke="#3B3246" stroke-width="1" stroke-linecap="round"/>
<g class="spot" data-id="gate">
<polygon points="20.0,230.0 66.0,230.0 66.0,300.0 20.0,300.0" fill="#E8ECEF" stroke="#3B3246" stroke-width="1.3" stroke-linejoin="round" stroke-linecap="round" />
<polygon points="20.0,230.0 30.0,220.0 76.0,220.0 66.0,230.0" fill="#F7F9FA" stroke="#3B3246" stroke-width="1.3" stroke-linejoin="round" stroke-linecap="round" />
<polygon points="140.0,230.0 186.0,230.0 186.0,300.0 140.0,300.0" fill="#E8ECEF" stroke="#3B3246" stroke-width="1.3" stroke-linejoin="round" stroke-linecap="round" />
<polygon points="140.0,230.0 150.0,220.0 196.0,220.0 186.0,230.0" fill="#F7F9FA" stroke="#3B3246" stroke-width="1.3" stroke-linejoin="round" stroke-linecap="round" />
<polygon points="260.0,230.0 306.0,230.0 306.0,300.0 260.0,300.0" fill="#E8ECEF" stroke="#3B3246" stroke-width="1.3" stroke-linejoin="round" stroke-linecap="round" />
<polygon points="260.0,230.0 270.0,220.0 316.0,220.0 306.0,230.0" fill="#F7F9FA" stroke="#3B3246" stroke-width="1.3" stroke-linejoin="round" stroke-linecap="round" />
</g>
<g class="spot" data-id="icreader">
<ellipse cx="160.0" cy="226.0" rx="14.0" ry="5.0" fill="#4C8FD6" stroke="#3B3246" stroke-width="1.3" stroke-linejoin="round" stroke-linecap="round" />
<text x="160" y="229" font-size="6" text-anchor="middle" fill="#FFFFFF" font-family="sans-serif" font-weight="700">IC</text>
</g>
<g class="spot" data-id="ticketslot">
<rect x="30.0" y="224.0" width="26.0" height="4.0" rx="1" fill="#2B2B33" stroke="#3B3246" stroke-width="0.8" stroke-linejoin="round" stroke-linecap="round" />
<text x="43" y="238" font-size="6" text-anchor="middle" fill="#3B3246" font-family="sans-serif" font-weight="700">きっぷ</text>
</g>
<g class="spot" data-id="gateflap">
<path d="M66 250 h40 q6 0 6 6 v10 q0 6 -6 6 h-40 z" fill="#E05A6A" stroke="#3B3246" stroke-width="1.3" stroke-linejoin="round" stroke-linecap="round" />
<path d="M186 250 h40 q6 0 6 6 v10 q0 6 -6 6 h-40 z" fill="#E05A6A" stroke="#3B3246" stroke-width="1.3" stroke-linejoin="round" stroke-linecap="round" />
<path d="M306 250 h40 q6 0 6 6 v10 q0 6 -6 6 h-40 z" fill="#E05A6A" stroke="#3B3246" stroke-width="1.3" stroke-linejoin="round" stroke-linecap="round" />
</g>
</svg>