<svg xmlns="http://www.w3.org/2000/svg" viewBox="0 0 320 180"><rect width="320" height="180" fill="#5C4E40"/><rect width="320" height="180" fill="#5C4E40"/><path d="M0 180 V40 q80 -40 160 -30 q90 10 160 40 V180z" fill="#3B3229"/><circle cx="286" cy="120" r="30" fill="#8A7866"/><g transform="translate(200 172) scale(-3.4 3.4)"><rect x="-5" y="-9" width="3" height="9" fill="#E8B98A"/><rect x="2" y="-9" width="3" height="9" fill="#E8B98A"/><path d="M-6 -29 L6 -29 L8 -8 L-8 -8 Z" fill="#6B5A40"/><line x1="-6" y1="-27" x2="-9" y2="-12" stroke="#E8B98A" stroke-width="3" stroke-linecap="round"/><line x1="6" y1="-27" x2="9" y2="-12" stroke="#E8B98A" stroke-width="3" stroke-linecap="round"/><circle cx="0" cy="-35" r="6" fill="#E8B98A"/><path d="M-6.2 -35 q0 -8 6.2 -8 q6.2 0 6.2 8 q-3 -3 -6.2 -3 q-3.2 0 -6.2 3z" fill="#3A2A1E"/><path d="M-5 -33 q5 9 10 0 q-2 6 -5 6 q-3 0 -5 -6z" fill="#3A2A1E"/></g><circle cx="193" cy="49" r="5" fill="#FFF7E8"/><circle cx="192" cy="49" r="2.4" fill="#4A2A18"/><g transform="translate(70 172) scale(0.9 0.9)"><rect x="-5" y="-9" width="3" height="9" fill="#E8B98A"/><rect x="2" y="-9" width="3" height="9" fill="#E8B98A"/><path d="M-6 -29 L6 -29 L8 -8 L-8 -8 Z" fill="#A0452E"/><line x1="-6" y1="-27" x2="-9" y2="-12" stroke="#E8B98A" stroke-width="3" stroke-linecap="round"/><line x1="6" y1="-27" x2="9" y2="-12" stroke="#E8B98A" stroke-width="3" stroke-linecap="round"/><circle cx="0" cy="-35" r="6" fill="#E8B98A"/><path d="M-6.2 -35 q0 -8 6.2 -8 q6.2 0 6.2 8 q-3 -3 -6.2 -3 q-3.2 0 -6.2 3z" fill="#3A2A1E"/></g><g transform="translate(92 172) scale(0.9 0.9)"><rect x="-5" y="-9" width="3" height="9" fill="#E8B98A"/><rect x="2" y="-9" width="3" height="9" fill="#E8B98A"/><path d="M-6 -29 L6 -29 L8 -8 L-8 -8 Z" fill="#B0763A"/><line x1="-6" y1="-27" x2="-9" y2="-12" stroke="#E8B98A" stroke-width="3" stroke-linecap="round"/><line x1="6" y1="-27" x2="9" y2="-12" stroke="#E8B98A" stroke-width="3" stroke-linecap="round"/><circle cx="0" cy="-35" r="6" fill="#E8B98A"/><path d="M-6.2 -35 q0 -8 6.2 -8 q6.2 0 6.2 8 q-3 -3 -6.2 -3 q-3.2 0 -6.2 3z" fill="#3A2A1E"/></g><g transform="translate(112 172) scale(0.9 0.9)"><rect x="-5" y="-9" width="3" height="9" fill="#E8B98A"/><rect x="2" y="-9" width="3" height="9" fill="#E8B98A"/><path d="M-6 -29 L6 -29 L8 -8 L-8 -8 Z" fill="#4E7A3C"/><line x1="-6" y1="-27" x2="-9" y2="-12" stroke="#E8B98A" stroke-width="3" stroke-linecap="round"/><line x1="6" y1="-27" x2="9" y2="-12" stroke="#E8B98A" stroke-width="3" stroke-linecap="round"/><circle cx="0" cy="-35" r="6" fill="#E8B98A"/><path d="M-6.2 -35 q0 -8 6.2 -8 q6.2 0 6.2 8 q-3 -3 -6.2 -3 q-3.2 0 -6.2 3z" fill="#3A2A1E"/></g></svg>