<svg xmlns="http://www.w3.org/2000/svg" viewBox="0 0 320 180"><rect width="320" height="180" fill="#F3D9A4"/><circle cx="262" cy="74" r="20" fill="#F29B38"/><circle cx="262" cy="74" r="27.0" fill="#F29B38" opacity=".18"/><path d="M0 0 H320 V50 q-60 -30 -120 -10 q-60 20 -110 0 q-40 -16 -90 6z" fill="#3B3229"/><rect y="138" width="320" height="42" fill="#6E9A52"/><rect y="138" width="320" height="4" fill="#668D4B"/><g transform="translate(66 152) scale(1.6 1.6)"><ellipse cx="0" cy="-10" rx="14" ry="9" fill="#FFF7E8"/><ellipse cx="4" cy="-7" rx="10" ry="5" fill="#E8E0D2"/><ellipse cx="14" cy="-14" rx="5" ry="4" fill="#4A2A18"/><circle cx="16" cy="-15" r=".9" fill="#FFF7E8"/><g fill="#4A2A18"><rect x="-9" y="-3" width="2.5" height="6"/><rect x="6" y="-3" width="2.5" height="6"/></g></g><g transform="translate(150 152) scale(1.6 1.6)"><ellipse cx="0" cy="-10" rx="14" ry="9" fill="#FFF7E8"/><ellipse cx="4" cy="-7" rx="10" ry="5" fill="#E8E0D2"/><ellipse cx="14" cy="-14" rx="5" ry="4" fill="#4A2A18"/><circle cx="16" cy="-15" r=".9" fill="#FFF7E8"/><g fill="#4A2A18"><rect x="-9" y="-3" width="2.5" height="6"/><rect x="6" y="-3" width="2.5" height="6"/></g></g><g transform="translate(234 152) scale(1.6 1.6)"><ellipse cx="0" cy="-10" rx="14" ry="9" fill="#FFF7E8"/><ellipse cx="4" cy="-7" rx="10" ry="5" fill="#E8E0D2"/><ellipse cx="14" cy="-14" rx="5" ry="4" fill="#4A2A18"/><circle cx="16" cy="-15" r=".9" fill="#FFF7E8"/><g fill="#4A2A18"><rect x="-9" y="-3" width="2.5" height="6"/><rect x="6" y="-3" width="2.5" height="6"/></g></g><g transform="translate(150 148)"><rect x="-14" y="-5" width="26" height="5" rx="2" fill="#A0452E"/><circle cx="-16" cy="-4" r="4" fill="#E8B98A"/><path d="M-20 -5 q4 -5 8 0" fill="#3A2A1E"/></g></svg>