<svg xmlns="http://www.w3.org/2000/svg" viewBox="0 0 320 180"><rect width="320" height="180" fill="#C8B6D8"/><rect width="320" height="120" fill="#C8B6D8"/><rect y="120" width="320" height="60" fill="#6E9A52"/><path d="M40 120 q-9 -30.0 0 -60 q9 30.0 0 60z" fill="#4E7A3C"/><path d="M290 120 q-9 -35.0 0 -70 q9 35.0 0 70z" fill="#4E7A3C"/><path d="M150 120 q-20 -10 -20 -30 h90 q0 20 -20 30z" fill="#4A2A18"/><ellipse cx="175" cy="90" rx="45" ry="6" fill="#6BA36A"/><path d="M160 80 q4 -12 -2 -20 M178 78 q6 -14 0 -24 M192 80 q4 -10 -2 -18" stroke="#EDE6F5" stroke-width="3" fill="none" stroke-linecap="round"/><g transform="translate(100 150) scale(1.3 1.3)"><path d="M-6 -29 L6 -29 L10 0 L-10 0 Z" fill="#6A4C98"/><line x1="-6" y1="-27" x2="-16" y2="-24" stroke="#E8B98A" stroke-width="3" stroke-linecap="round"/><line x1="6" y1="-27" x2="16" y2="-24" stroke="#E8B98A" stroke-width="3" stroke-linecap="round"/><circle cx="0" cy="-35" r="6" fill="#E8B98A"/><path d="M-6.5 -34 q0 -9 6.5 -9 q6.5 0 6.5 9 v10 h-3 v-9 q-3.5 -4 -7 0 v9 h-3z" fill="#E0B04A"/></g><line x1="121" y1="118" x2="134" y2="102" stroke="#4A2A18" stroke-width="2.5"/><circle cx="135" cy="101" r="2.5" fill="#E0B04A"/><g transform="translate(180 162) scale(1.2)"><ellipse cx="0" cy="-8" rx="11" ry="7" fill="#E9A3A0"/><circle cx="11" cy="-10" r="4.5" fill="#E9A3A0"/><ellipse cx="14.5" cy="-10" rx="1.6" ry="2" fill="#C97B78"/><g fill="#C97B78"><rect x="-7" y="-3" width="2.5" height="4"/><rect x="5" y="-3" width="2.5" height="4"/></g></g><g transform="translate(222 168) scale(1.1)"><ellipse cx="0" cy="-8" rx="11" ry="7" fill="#E9A3A0"/><circle cx="11" cy="-10" r="4.5" fill="#E9A3A0"/><ellipse cx="14.5" cy="-10" rx="1.6" ry="2" fill="#C97B78"/><g fill="#C97B78"><rect x="-7" y="-3" width="2.5" height="4"/><rect x="5" y="-3" width="2.5" height="4"/></g></g><g transform="translate(262 160) scale(1.2)"><ellipse cx="0" cy="-8" rx="11" ry="7" fill="#E9A3A0"/><circle cx="11" cy="-10" r="4.5" fill="#E9A3A0"/><ellipse cx="14.5" cy="-10" rx="1.6" ry="2" fill="#C97B78"/><g fill="#C97B78"><rect x="-7" y="-3" width="2.5" height="4"/><rect x="5" y="-3" width="2.5" height="4"/></g></g></svg>