<svg xmlns="http://www.w3.org/2000/svg" viewBox="0 0 320 180"><rect width="320" height="180" fill="#F6CBA0"/><circle cx="160" cy="104" r="30" fill="#F7B45A"/><rect y="0" width="320" height="0"/><path d="M0 110 q60 -50 120 -30 q40 -26 90 -6 q60 -10 110 20 V120 H0z" fill="#4E7A3C"/><rect x="178" y="76" width="30" height="16" fill="#E6D6B4"/><path d="M174 78 l19 -10 l19 10z" fill="#A0452E"/><rect y="114" width="320" height="66" fill="#2E5E8A"/><path d="M0 120 q10 -8 20 0 t20 0 t20 0 t20 0 t20 0 t20 0 t20 0 t20 0 t20 0 t20 0 t20 0 t20 0 t20 0 t20 0 t20 0 t20 0 t20 0 t20 0 v8 H0z" fill="#3E78A8"/><g transform="translate(90 130) scale(0.6)"><path d="M-48 0 h96 l-14 18 h-68 z" fill="#6B3E26"/><rect x="-2" y="-72" width="4" height="72" fill="#4A2A18"/><path d="M2 -68 q34 26 0 58 z" fill="#FFF7E8" stroke="#C9A36B"/><path d="M-2 -64 q-26 24 0 50 z" fill="#FFF7E8" stroke="#C9A36B"/><g fill="#6B3E26"><rect x="-34" y="2" width="3" height="10"/><rect x="-18" y="2" width="3" height="10"/><rect x="14" y="2" width="3" height="10"/><rect x="30" y="2" width="3" height="10"/></g></g></svg>