<svg xmlns="http://www.w3.org/2000/svg" viewBox="0 0 320 180"><rect width="320" height="180" fill="#EAD9B6"/><rect y="132" width="320" height="48" fill="#B98F5E"/><rect x="40" y="36" width="240" height="96" fill="#D9C49C"/><rect x="142" y="66" width="40" height="66" fill="#4A2A18"/><g transform="translate(110 154) scale(0.84 0.84)"><path d="M-14 -70 Q0 -76 14 -70 L18 0 L-18 0 Z" fill="#6E5E48"/><rect x="-9" y="-30" width="7" height="30" rx="2" fill="#E8B98A"/><rect x="2" y="-30" width="7" height="30" rx="2" fill="#D3A87E"/><path d="M-11 -72 Q0 -75 11 -72 L14 -28 Q0 -25 -14 -28 Z" fill="#8C7A60"/><path d="M3 -72 L11 -72 L14 -28 L5 -28 Z" fill="#776852"/><rect x="-13" y="-40" width="26" height="4" fill="#5A3A22"/><line x1="-11" y1="-66" x2="-15" y2="-36" stroke="#E8B98A" stroke-width="7" stroke-linecap="round"/><line x1="11" y1="-66" x2="32" y2="-54" stroke="#E8B98A" stroke-width="7" stroke-linecap="round"/><circle cx="0" cy="-86" r="12" fill="#E8B98A"/><path d="M3 -97.6 A12 12 0 0 1 3 -74.4 A8 12 0 0 0 3 -97.6 Z" fill="#CFA57B"/><path d="M-15 -80 Q-16 -104 0 -104 Q16 -104 15 -80 L11 -82 Q10 -96 0 -96 Q-10 -96 -11 -82 Z" fill="#6E5E48"/><path d="M-10 -84 Q-9 -70 0 -69 Q9 -70 10 -84 Q6 -77 0 -77 Q-6 -77 -10 -84 Z" fill="#9A9186"/><circle cx="-1" cy="-87" r="1.5" fill="#2A211B"/><circle cx="7" cy="-87" r="1.5" fill="#2A211B"/><line x1="17" y1="-70" x2="19" y2="0" stroke="#6B3E26" stroke-width="3.5" stroke-linecap="round"/></g><g transform="translate(214 154) scale(-0.84 0.84)"><rect x="-9" y="-30" width="7" height="30" rx="2" fill="#E8B98A"/><rect x="2" y="-30" width="7" height="30" rx="2" fill="#D3A87E"/><path d="M-11 -72 Q0 -75 11 -72 L14 -28 Q0 -25 -14 -28 Z" fill="#5E8C4A"/><path d="M3 -72 L11 -72 L14 -28 L5 -28 Z" fill="#527640"/><rect x="-13" y="-40" width="26" height="4" fill="#5A3A22"/><line x1="-11" y1="-66" x2="-30" y2="-58" stroke="#E8B98A" stroke-width="7" stroke-linecap="round"/><line x1="11" y1="-66" x2="30" y2="-58" stroke="#E8B98A" stroke-width="7" stroke-linecap="round"/><circle cx="0" cy="-86" r="12" fill="#E8B98A"/><path d="M3 -97.6 A12 12 0 0 1 3 -74.4 A8 12 0 0 0 3 -97.6 Z" fill="#CFA57B"/><path d="M-12.5 -85 Q-13 -100 0 -100 Q13 -100 12.5 -85 Q7 -92 0 -92 Q-7 -92 -12.5 -85 Z" fill="#6B4A2E"/><circle cx="-1" cy="-87" r="1.5" fill="#2A211B"/><circle cx="7" cy="-87" r="1.5" fill="#2A211B"/><path d="M-4 -93 Q-1.5 -95 1 -93 M5 -93 Q7.5 -95 10 -93" stroke="#2A211B" stroke-width="1.2" fill="none" stroke-linecap="round"/><ellipse cx="3" cy="-80.5" rx="1.8" ry="2.4" fill="#2A211B"/></g></svg>