<svg xmlns="http://www.w3.org/2000/svg" viewBox="0 0 320 180"><rect width="320" height="180" fill="#E6D6B4"/><rect width="320" height="180" fill="#E6D6B4"/><rect x="170" y="40" width="70" height="104" fill="#6B3E26"/><rect y="144" width="320" height="36" fill="#B98F5E"/><g transform="translate(110 150) scale(1.4)"><ellipse cx="0" cy="-5" rx="15" ry="5" fill="#9C7A55"/><circle cx="15" cy="-7" r="5" fill="#9C7A55"/><path d="M16 -11 l3 -5 l2 6z" fill="#7A5C3E"/><path d="M-15 -6 q-8 -6 -10 -1" stroke="#9C7A55" stroke-width="2.5" fill="none" stroke-linecap="round"/></g><g transform="translate(210 154) scale(-1.3 1.3)"><path d="M-9 -30 L9 -30 L12 0 L-12 0 Z" fill="#6E5E48"/><rect x="-5" y="-9" width="3" height="9" fill="#E8B98A"/><rect x="2" y="-9" width="3" height="9" fill="#E8B98A"/><path d="M-6 -29 L6 -29 L8 -8 L-8 -8 Z" fill="#8C7A60"/><line x1="-6" y1="-27" x2="-16" y2="-24" stroke="#E8B98A" stroke-width="3" stroke-linecap="round"/><line x1="6" y1="-27" x2="16" y2="-24" stroke="#E8B98A" stroke-width="3" stroke-linecap="round"/><circle cx="0" cy="-35" r="6" fill="#E8B98A"/><path d="M-6.2 -35 q0 -8 6.2 -8 q6.2 0 6.2 8 q-3 -3 -6.2 -3 q-3.2 0 -6.2 3z" fill="#9A9186"/><path d="M-5 -33 q5 9 10 0 q-2 6 -5 6 q-3 0 -5 -6z" fill="#9A9186"/></g><line x1="232" y1="108" x2="236" y2="154" stroke="#4A2A18" stroke-width="3"/></svg>