<svg xmlns="http://www.w3.org/2000/svg" viewBox="0 0 320 180"><rect width="320" height="180" fill="#E6D6B4"/><rect y="138" width="320" height="42" fill="#B98F5E"/><rect y="138" width="320" height="4" fill="#A68055"/><rect x="22" y="26" width="12" height="112" fill="#E6D6B4"/><rect x="29.2" y="26" width="4.800000000000001" height="112" fill="#D2C3A4"/><rect x="19" y="26" width="18" height="5" fill="#CDB88F"/><rect x="19" y="133" width="18" height="5" fill="#CDB88F"/><rect x="286" y="26" width="12" height="112" fill="#E6D6B4"/><rect x="293.2" y="26" width="4.800000000000001" height="112" fill="#D2C3A4"/><rect x="283" y="26" width="18" height="5" fill="#CDB88F"/><rect x="283" y="133" width="18" height="5" fill="#CDB88F"/><rect y="22" width="320" height="8" fill="#CDB88F"/><rect x="168" y="116" width="118" height="6" fill="#6B3E26"/><rect x="168" y="120" width="118" height="2" fill="#5C3622"/><rect x="173" y="122" width="4" height="14" fill="#4A2A18"/><rect x="277" y="122" width="4" height="14" fill="#4A2A18"/><g transform="translate(190 142) scale(-0.58 0.58)"><rect x="-9" y="-30" width="7" height="30" rx="2" fill="#E8B98A"/><rect x="2" y="-30" width="7" height="30" rx="2" fill="#D3A87E"/><path d="M-11 -72 Q0 -75 11 -72 L14 -28 Q0 -25 -14 -28 Z" fill="#7A5C8E"/><path d="M3 -72 L11 -72 L14 -28 L5 -28 Z" fill="#694F77"/><rect x="-13" y="-40" width="26" height="4" fill="#5A3A22"/><line x1="-11" y1="-66" x2="-15" y2="-36" stroke="#E8B98A" stroke-width="7" stroke-linecap="round"/><line x1="11" y1="-66" x2="15" y2="-36" stroke="#E8B98A" stroke-width="7" stroke-linecap="round"/><circle cx="0" cy="-86" r="12" fill="#E8B98A"/><path d="M3 -97.6 A12 12 0 0 1 3 -74.4 A8 12 0 0 0 3 -97.6 Z" fill="#CFA57B"/><path d="M-12.5 -85 Q-13 -100 0 -100 Q13 -100 12.5 -85 Q7 -92 0 -92 Q-7 -92 -12.5 -85 Z" fill="#2A211B"/><path d="M-10 -84 Q-9 -70 0 -69 Q9 -70 10 -84 Q6 -77 0 -77 Q-6 -77 -10 -84 Z" fill="#2A211B"/><circle cx="-1" cy="-87" r="1.5" fill="#2A211B"/><circle cx="7" cy="-87" r="1.5" fill="#2A211B"/><path d="M-4 -92.5 L1 -90 M5 -90 L10 -92.5" stroke="#2A211B" stroke-width="1.2" fill="none" stroke-linecap="round"/><path d="M0 -80 L6 -81" stroke="#F0D6B8" stroke-width="1.2" fill="none" stroke-linecap="round"/></g><g transform="translate(222 142) scale(-0.56 0.56)"><rect x="-9" y="-30" width="7" height="30" rx="2" fill="#E8B98A"/><rect x="2" y="-30" width="7" height="30" rx="2" fill="#D3A87E"/><path d="M-11 -72 Q0 -75 11 -72 L14 -28 Q0 -25 -14 -28 Z" fill="#B0763A"/><path d="M3 -72 L11 -72 L14 -28 L5 -28 Z" fill="#956432"/><rect x="-13" y="-40" width="26" height="4" fill="#5A3A22"/><line x1="-11" y1="-66" x2="-20" y2="-96" stroke="#E8B98A" stroke-width="7" stroke-linecap="round"/><line x1="11" y1="-66" x2="20" y2="-96" stroke="#E8B98A" stroke-width="7" stroke-linecap="round"/><circle cx="0" cy="-86" r="12" fill="#E8B98A"/><path d="M3 -97.6 A12 12 0 0 1 3 -74.4 A8 12 0 0 0 3 -97.6 Z" fill="#CFA57B"/><path d="M-12.5 -85 Q-13 -100 0 -100 Q13 -100 12.5 -85 Q7 -92 0 -92 Q-7 -92 -12.5 -85 Z" fill="#6B4A2E"/><circle cx="-1" cy="-87" r="1.5" fill="#2A211B"/><circle cx="7" cy="-87" r="1.5" fill="#2A211B"/><path d="M-0.5 -82 Q3 -78.5 6.5 -82" stroke="#2A211B" stroke-width="1.2" fill="none" stroke-linecap="round"/></g><g transform="translate(256 142) scale(-0.58 0.58)"><rect x="-9" y="-30" width="7" height="30" rx="2" fill="#E8B98A"/><rect x="2" y="-30" width="7" height="30" rx="2" fill="#D3A87E"/><path d="M-11 -72 Q0 -75 11 -72 L14 -28 Q0 -25 -14 -28 Z" fill="#4E7A3C"/><path d="M3 -72 L11 -72 L14 -28 L5 -28 Z" fill="#456834"/><rect x="-13" y="-40" width="26" height="4" fill="#5A3A22"/><line x1="-11" y1="-66" x2="-15" y2="-36" stroke="#E8B98A" stroke-width="7" stroke-linecap="round"/><line x1="11" y1="-66" x2="38" y2="-72" stroke="#E8B98A" stroke-width="7" stroke-linecap="round"/><circle cx="0" cy="-86" r="12" fill="#E8B98A"/><path d="M3 -97.6 A12 12 0 0 1 3 -74.4 A8 12 0 0 0 3 -97.6 Z" fill="#CFA57B"/><path d="M-12.5 -85 Q-13 -100 0 -100 Q13 -100 12.5 -85 Q7 -92 0 -92 Q-7 -92 -12.5 -85 Z" fill="#3A2A1E"/><path d="M-10 -84 Q-9 -70 0 -69 Q9 -70 10 -84 Q6 -77 0 -77 Q-6 -77 -10 -84 Z" fill="#3A2A1E"/><circle cx="-1" cy="-87" r="1.5" fill="#2A211B"/><circle cx="7" cy="-87" r="1.5" fill="#2A211B"/><path d="M-0.5 -82 Q3 -78.5 6.5 -82" stroke="#F0D6B8" stroke-width="1.2" fill="none" stroke-linecap="round"/></g><circle cx="150" cy="82" r="4" fill="#E0B04A"/><path d="M160 76 l10 -4 M160 86 l10 2" stroke="#2A211B" stroke-width="1.5"/><g transform="translate(84 152) scale(0.84 0.84)"><path d="M-14 -70 Q0 -76 14 -70 L18 0 L-18 0 Z" fill="#6E5E48"/><rect x="-9" y="-30" width="7" height="30" rx="2" fill="#E8B98A"/><rect x="2" y="-30" width="7" height="30" rx="2" fill="#D3A87E"/><path d="M-11 -72 Q0 -75 11 -72 L14 -28 Q0 -25 -14 -28 Z" fill="#8C7A60"/><path d="M3 -72 L11 -72 L14 -28 L5 -28 Z" fill="#776852"/><rect x="-13" y="-40" width="26" height="4" fill="#5A3A22"/><line x1="-11" y1="-66" x2="-15" y2="-36" stroke="#E8B98A" stroke-width="7" stroke-linecap="round"/><line x1="11" y1="-66" x2="15" y2="-36" stroke="#E8B98A" stroke-width="7" stroke-linecap="round"/><circle cx="0" cy="-86" r="12" fill="#E8B98A"/><path d="M3 -97.6 A12 12 0 0 1 3 -74.4 A8 12 0 0 0 3 -97.6 Z" fill="#CFA57B"/><path d="M-15 -80 Q-16 -104 0 -104 Q16 -104 15 -80 L11 -82 Q10 -96 0 -96 Q-10 -96 -11 -82 Z" fill="#6E5E48"/><path d="M-10 -84 Q-9 -70 0 -69 Q9 -70 10 -84 Q6 -77 0 -77 Q-6 -77 -10 -84 Z" fill="#9A9186"/><circle cx="-1" cy="-87" r="1.5" fill="#2A211B"/><circle cx="7" cy="-87" r="1.5" fill="#2A211B"/><path d="M-4 -92.5 L1 -90 M5 -90 L10 -92.5" stroke="#2A211B" stroke-width="1.2" fill="none" stroke-linecap="round"/><path d="M0 -80 L6 -81" stroke="#F0D6B8" stroke-width="1.2" fill="none" stroke-linecap="round"/><line x1="17" y1="-70" x2="19" y2="0" stroke="#6B3E26" stroke-width="3.5" stroke-linecap="round"/></g></svg>