<svg xmlns="http://www.w3.org/2000/svg" viewBox="0 0 320 180"><rect width="320" height="180" fill="#E4CFA6"/><rect width="320" height="180" fill="#E4CFA6"/><rect y="146" width="320" height="34" fill="#B98F5E"/><path d="M150 146 q-8 -40 4 -80 q-30 -10 -40 -40 q30 10 44 30 q10 -26 40 -30 q-14 24 -30 36 q10 40 2 84z" fill="#7A5C3E"/><ellipse cx="120" cy="30" rx="18" ry="8" fill="#6E9A52"/><ellipse cx="170" cy="22" rx="18" ry="8" fill="#6E9A52"/><ellipse cx="214" cy="34" rx="18" ry="8" fill="#6E9A52"/><ellipse cx="150" cy="44" rx="18" ry="8" fill="#6E9A52"/><ellipse cx="196" cy="50" rx="18" ry="8" fill="#6E9A52"/><rect x="150" y="118" width="120" height="16" fill="#6B3E26"/><rect x="156" y="108" width="110" height="10" fill="#FFF7E8"/><rect x="262" y="96" width="8" height="50" fill="#4A2A18"/><g transform="translate(80 160) scale(1.3 1.3)"><path d="M-6 -29 L6 -29 L10 0 L-10 0 Z" fill="#3E6FA0"/><line x1="-6" y1="-27" x2="-9" y2="-12" stroke="#E8B98A" stroke-width="3" stroke-linecap="round"/><line x1="6" y1="-27" x2="9" y2="-12" stroke="#E8B98A" stroke-width="3" stroke-linecap="round"/><circle cx="0" cy="-35" r="6" fill="#E8B98A"/><path d="M-6.5 -34 q0 -9 6.5 -9 q6.5 0 6.5 9 v10 h-3 v-9 q-3.5 -4 -7 0 v9 h-3z" fill="#3A2A1E"/></g><g transform="translate(300 160) scale(-1.3 1.3)"><rect x="-5" y="-9" width="3" height="9" fill="#E8B98A"/><rect x="2" y="-9" width="3" height="9" fill="#E8B98A"/><path d="M-6 -29 L6 -29 L8 -8 L-8 -8 Z" fill="#A0452E"/><line x1="-6" y1="-27" x2="-9" y2="-12" stroke="#E8B98A" stroke-width="3" stroke-linecap="round"/><line x1="6" y1="-27" x2="9" y2="-12" stroke="#E8B98A" stroke-width="3" stroke-linecap="round"/><circle cx="0" cy="-35" r="6" fill="#E8B98A"/><path d="M-6.2 -35 q0 -8 6.2 -8 q6.2 0 6.2 8 q-3 -3 -6.2 -3 q-3.2 0 -6.2 3z" fill="#3A2A1E"/><path d="M-5 -33 q5 9 10 0 q-2 6 -5 6 q-3 0 -5 -6z" fill="#3A2A1E"/></g></svg>